<svg width="63" height="63" viewBox="0 0 63 63" fill="none" xmlns="http://www.w3.org/2000/svg">
<circle cx="31.5" cy="31.5" r="31.5" fill="#25BEA3"/>
<path d="M31.4318 22.1818C31.2614 20.7424 30.5701 19.625 29.358 18.8295C28.1458 18.0341 26.6591 17.6364 24.8977 17.6364C23.6098 17.6364 22.483 17.8447 21.517 18.2614C20.5606 18.678 19.8125 19.2509 19.2727 19.9801C18.7424 20.7093 18.4773 21.5379 18.4773 22.4659C18.4773 23.2424 18.6619 23.91 19.0312 24.4688C19.41 25.018 19.893 25.4773 20.4801 25.8466C21.0672 26.2064 21.6828 26.5047 22.3267 26.7415C22.9706 26.9687 23.5625 27.1534 24.1023 27.2955L27.0568 28.0909C27.8144 28.2898 28.6572 28.5644 29.5852 28.9148C30.5227 29.2652 31.4176 29.7434 32.2699 30.3494C33.1316 30.946 33.8419 31.7131 34.4006 32.6506C34.9593 33.5881 35.2386 34.7386 35.2386 36.1023C35.2386 37.6742 34.8267 39.0947 34.0028 40.3636C33.1884 41.6326 31.9953 42.6411 30.4233 43.3892C28.8608 44.1373 26.9621 44.5114 24.7273 44.5114C22.6439 44.5114 20.84 44.1752 19.3153 43.5028C17.8002 42.8305 16.607 41.893 15.7358 40.6903C14.8741 39.4877 14.3864 38.0909 14.2727 36.5H17.9091C18.0038 37.5985 18.3731 38.5076 19.017 39.2273C19.6705 39.9375 20.4943 40.4678 21.4886 40.8182C22.4924 41.1591 23.572 41.3295 24.7273 41.3295C26.072 41.3295 27.2794 41.1117 28.3494 40.6761C29.4195 40.2311 30.267 39.6155 30.892 38.8295C31.517 38.0341 31.8295 37.1061 31.8295 36.0455C31.8295 35.0795 31.5597 34.2936 31.0199 33.6875C30.4801 33.0814 29.7699 32.589 28.8892 32.2102C28.0085 31.8314 27.0568 31.5 26.0341 31.2159L22.4545 30.1932C20.1818 29.5398 18.3826 28.607 17.0568 27.3949C15.7311 26.1828 15.0682 24.5966 15.0682 22.6364C15.0682 21.0076 15.5085 19.5871 16.3892 18.375C17.2794 17.1534 18.4725 16.2064 19.9688 15.5341C21.4744 14.8523 23.1553 14.5114 25.0114 14.5114C26.8864 14.5114 28.553 14.8475 30.0114 15.5199C31.4697 16.1828 32.625 17.0919 33.4773 18.2472C34.339 19.4025 34.7936 20.714 34.8409 22.1818H31.4318Z" fill="white"/>
<path d="M35.8295 52H33.6136L40.0227 34.5455H42.2045L48.6136 52H46.3977L41.1818 37.3068H41.0455L35.8295 52ZM36.6477 45.1818H45.5795V47.0568H36.6477V45.1818Z" fill="white"/>
</svg>
